<svg viewBox="0 0 50 50" xmlns="http://www.w3.org/2000/svg" fill-rule="evenodd" clip-rule="evenodd" stroke-linejoin="round" stroke-miterlimit="2"><path fill="none" d="M0 0h50v50H0z"/><path d="M19.28 37.66h1.506V26.79H19.28a1.505 1.505 0 01-1.505-1.505v-3.595c0-.832.673-1.505 1.505-1.505h8.428c.832 0 1.505.673 1.505 1.505V37.66h1.506c.83 0 1.505.674 1.505 1.505v3.595c0 .832-.674 1.505-1.505 1.505H19.28a1.505 1.505 0 01-1.504-1.505v-3.595c0-.831.673-1.505 1.505-1.505zM25 5.735a5.418 5.418 0 100 10.836 5.418 5.418 0 000-10.836z" fill="#fff" fill-rule="nonzero"/></svg>
