<svg viewBox="0 0 50 50" xmlns="http://www.w3.org/2000/svg" fill-rule="evenodd" clip-rule="evenodd" stroke-linejoin="round" stroke-miterlimit="2"><path fill="none" d="M0 0h50v50H0z"/><g fill="#fff" fill-rule="nonzero"><path d="M11.234 38.467a3.978 3.978 0 00-3.973 3.973 3.978 3.978 0 003.973 3.973 3.978 3.978 0 003.974-3.973 3.978 3.978 0 00-3.974-3.973zm0 6.691a2.722 2.722 0 01-2.718-2.718 2.722 2.722 0 012.718-2.719 2.722 2.722 0 012.719 2.719 2.722 2.722 0 01-2.719 2.718zM46.245 17.082l-.008-.019v-.002l-.003-.005a.651.651 0 00-.019-.043c-.461-1.094-1.526-1.784-3.168-2.052-1.252-.204-2.89-.166-4.869.112a16.552 16.552 0 00-1.17-1.387 5.718 5.718 0 002.028-4.37c0-3.159-2.57-5.729-5.73-5.729a5.738 5.738 0 00-5.697 5.12 16.543 16.543 0 00-12.953 3.436 16.568 16.568 0 00-5.735 9.131.627.627 0 001.223.282 15.308 15.308 0 015.3-8.436 15.078 15.078 0 019.555-3.366c.88 0 1.759.076 2.617.225a5.737 5.737 0 005.69 5.067c.955 0 1.854-.235 2.647-.65a15.241 15.241 0 013.624 6.128c-.427.283-.911.587-1.462.915-6.402 3.87-18.027 8.221-25.389 9.5a36.36 36.36 0 01-1.658.264A15.117 15.117 0 019.753 25c0-.293.009-.588.025-.878a.627.627 0 00-1.252-.071 16.821 16.821 0 00.018 2.16c-1.87 1.214-3.17 2.302-3.968 3.318-.923 1.174-1.201 2.308-.829 3.37l.006.019c.362 1.026 1.465 2.238 4.655 2.238h.145c.97-.012 2.053-.1 3.24-.264a16.644 16.644 0 005.534 4.72A16.539 16.539 0 0025 41.5c4.844 0 9.426-2.117 12.57-5.81a.627.627 0 00-.956-.813A15.232 15.232 0 0125 40.246c-4.568 0-8.9-2.067-11.785-5.575a54.444 54.444 0 003.332-.695.627.627 0 00-.292-1.22c-1.54.368-2.96.649-4.253.84l-.01.002c-1.28.189-2.434.29-3.453.303-2.56.03-3.372-.746-3.603-1.4v-.004c-.455-1.262.78-2.865 3.768-4.887.072.458.164.91.274 1.358-1.212.879-2.111 1.705-2.675 2.461l-.007.01-.007.01-.008.01a.67.67 0 00-.023.036l-.013.023-.016.03a.603.603 0 00-.014.031l-.007.017-.003.009a.61.61 0 00-.011.034l-.008.027-.006.03-.007.032-.002.022-.004.04v.062l.001.012a.62.62 0 00.005.048l.002.012.01.046c0 .006.003.011.004.017a.61.61 0 00.012.04l.008.021a.556.556 0 00.014.034l.012.023.016.03.014.023c.006.01.012.02.02.03l.014.018.024.03.014.014.03.031.013.011.036.03.005.004.005.003a.616.616 0 00.143.078c.26.1.834.247 1.956.247.992 0 2.412-.115 4.421-.48 7.483-1.3 19.307-5.725 25.815-9.66 3.77-2.242 4.753-3.571 5-4.038a.643.643 0 00.024-.05c0-.002 0-.004.002-.005a.629.629 0 00.03-.1l.002-.004.001-.005a.594.594 0 00.008-.048l.002-.015a.634.634 0 00.003-.045v-.018-.04l-.002-.023-.005-.035-.004-.025-.008-.034-.006-.025-.012-.035-.008-.021a.656.656 0 00-.017-.039l-.008-.015a.642.642 0 00-.023-.04l-.007-.012a.616.616 0 00-.027-.039l-.008-.01a.651.651 0 00-.029-.034l-.011-.012a.557.557 0 00-.028-.027l-.018-.016-.025-.02-.026-.019-.021-.014a.632.632 0 00-.033-.02l-.007-.003-.016-.008a.63.63 0 00-.033-.015l-.03-.012-.027-.01a.615.615 0 00-.038-.01c-.005 0-.01-.002-.015-.004l-.014-.002-.008-.002c-.924-.2-2.147-.232-3.637-.098-.216-.42-.45-.832-.702-1.232 3.479-.413 5.576.026 6.089 1.286.494 1.416-1.13 3.263-4.97 5.647-5.021 3.154-13.757 6.818-21.244 8.911a.627.627 0 00.338 1.208c7.336-2.05 15.869-5.599 21.046-8.731a15.23 15.23 0 01-2.102 8.185.627.627 0 101.08.638 16.488 16.488 0 002.24-9.587c1.806-1.174 3.082-2.23 3.885-3.215.995-1.22 1.298-2.396.903-3.495zM28.831 9.317a4.48 4.48 0 014.475-4.475 4.48 4.48 0 014.475 4.475 4.48 4.48 0 01-4.475 4.475 4.48 4.48 0 01-4.475-4.475zM8.014 31.387c.368-.36.815-.74 1.338-1.135.124.368.26.732.411 1.093-.76.06-1.331.064-1.749.042zM42 18.657c-.3.291-.733.664-1.347 1.118-.123-.37-.26-.735-.409-1.095.655-.045 1.241-.052 1.756-.023z"/></g></svg>
