<svg viewBox="0 0 50 50" xmlns="http://www.w3.org/2000/svg" fill-rule="evenodd" clip-rule="evenodd" stroke-linejoin="round" stroke-miterlimit="2"><path fill="none" d="M0 0h50v50H0z"/><path d="M43.88 10.974H6.12c-1.187 0-2.158.971-2.158 2.158v23.735c0 1.187.971 2.158 2.158 2.158h37.76c1.187 0 2.158-.971 2.158-2.158V13.132a2.164 2.164 0 00-2.158-2.158zm-.81 1.619L26.241 25.216c-.302.23-.767.374-1.241.372-.474.002-.939-.142-1.241-.372L6.929 12.593H43.07zm-8.99 13.455l9.171 11.329.03.03H6.72l.03-.03 9.17-11.329a.81.81 0 00-1.258-1.018l-9.08 11.217V13.604L22.787 26.51c.647.482 1.434.694 2.212.696.777-.002 1.564-.214 2.211-.696L44.42 13.604v22.643L35.34 25.03a.809.809 0 10-1.258 1.018z" fill="#fff" fill-rule="nonzero"/></svg>
