<svg viewBox="0 0 50 50" xmlns="http://www.w3.org/2000/svg" fill-rule="evenodd" clip-rule="evenodd" stroke-linejoin="round" stroke-miterlimit="2"><path d="M45.823 11.931V5.397a1.22 1.22 0 00-1.22-1.22h-6.534a1.22 1.22 0 00-.863.357L25 16.74 12.794 4.534a1.22 1.22 0 00-.863-.357H5.397a1.22 1.22 0 00-1.22 1.22v6.534c0 .324.129.635.357.863L16.74 25l-2.194 2.194c-.154-.152-.303-.301-.445-.444a4.001 4.001 0 00-5.645 0 3.986 3.986 0 000 5.647l1.75 1.75-4.978 4.976-.002.001a3.577 3.577 0 00-1.049 2.542 4.153 4.153 0 004.154 4.157c.962 0 1.865-.374 2.544-1.055l4.977-4.974c.638.64 1.234 1.234 1.752 1.751a4 4 0 005.644.001 3.987 3.987 0 000-5.648l-.443-.443L25 33.26l2.195 2.195-.443.443a3.987 3.987 0 000 5.648 4 4 0 005.644 0l1.752-1.752 4.978 4.975a3.568 3.568 0 002.543 1.054 4.154 4.154 0 004.154-4.157 3.577 3.577 0 00-1.051-2.543l-4.978-4.975c.638-.64 1.233-1.234 1.75-1.75a3.986 3.986 0 000-5.647 4.001 4.001 0 00-5.644 0l-.445.444L33.26 25l12.206-12.206a1.22 1.22 0 00.357-.863zm-39.206-.505V6.617h4.81l11.848 11.85-4.809 4.808L6.617 11.426zM9.15 43.043c-.56.56-1.492.374-2.025-.162-.545-.539-.725-1.476-.17-2.033l4.977-4.975 2.196 2.196-4.978 4.974zm12.376-3.225a1.556 1.556 0 01-2.197 0l-9.148-9.147a1.548 1.548 0 010-2.194 1.556 1.556 0 012.196 0l9.149 9.148a1.548 1.548 0 010 2.193zm21.522 1.03c.555.557.374 1.495-.17 2.034-.534.535-1.466.722-2.026.161l-4.977-4.974 2.195-2.195 4.978 4.974zm-5.423-12.37a1.556 1.556 0 012.196 0 1.547 1.547 0 010 2.193l-9.147 9.147a1.556 1.556 0 01-2.197 0 1.548 1.548 0 010-2.193l9.148-9.148zm-3.895.443l-4.808 4.808-2.196-2.195 4.809-4.809 2.195 2.196zm9.654-17.495L21.08 33.73l-4.809-4.808L38.574 6.617h4.809v4.81z" fill="#fff" fill-rule="nonzero"/></svg>
