<svg viewBox="0 0 50 50" xmlns="http://www.w3.org/2000/svg" fill-rule="evenodd" clip-rule="evenodd" stroke-linejoin="round" stroke-miterlimit="2"><path fill="none" d="M0 0h50v50H0z"/><path d="M25 4.03c-11.525 0-20.97 9.527-20.97 21.052C4.03 36.54 13.389 45.97 25 45.97c11.597 0 20.97-9.416 20.97-20.888C45.97 13.557 36.525 4.03 25 4.03zm3.686 39.114c-1.18.246-2.433.369-3.686.369-1.253 0-2.507-.123-3.686-.37v-5.75c0-1.376.368-1.867.86-2.53.25-.287.401-.543 1.523-2.237l-1.892-.295c-4.866-.712-6.782-3.244-7.544-5.21-.983-2.629-.467-5.922 1.303-8.01.27-.32.491-.861.294-1.426-.368-1.13-.32-2.924-.073-3.613 1.303.187 2.642 1.12 3.76 1.794.515.3.785.222 1.032.246.897-.187 2.298-.639 4.448-.639 1.327 0 2.727.197 4.104.59.246-.006.641.203 1.327-.197 1.167-.711 2.462-1.613 3.76-1.794.245.689.294 2.482-.074 3.613-.197.565.024 1.106.295 1.425 1.769 2.09 2.285 5.382 1.302 8.011-.762 1.966-2.679 4.498-7.544 5.21l-1.892.295c1.16 1.75 1.282 1.96 1.523 2.236.491.664.86 1.155.86 2.532v5.75zm2.457-.713v-5.037c0-1.401-.295-2.335-.688-3.023 3.736-1.007 6.39-3.22 7.57-6.39 1.253-3.341.688-7.323-1.402-10.075.37-1.646.37-4.276-.515-5.505-.394-.54-.934-.835-1.622-.835h-.025c-1.905.103-3.405 1.063-5.013 2.04a17.334 17.334 0 00-4.473-.59c-1.523 0-3.047.22-4.398.59-1.693-1.021-3.178-1.94-5.136-2.04-.615 0-1.156.295-1.549.835-.884 1.23-.884 3.859-.516 5.505-2.089 2.752-2.654 6.758-1.4 10.075 1.179 3.17 3.833 5.383 7.569 6.39-.305.533-.547 1.221-.642 2.153-.754.26-1.408.345-2.017.166-.642-.19-1.142-.618-1.577-1.35-.976-1.639-2.638-2.977-4.53-2.803l.216 2.448c.876-.08 1.748.847 2.201 1.611.748 1.259 1.755 2.085 2.994 2.45.92.272 1.76.265 2.666.072v3.313c-7.15-2.506-12.369-9.338-12.369-17.35 0-10.173 8.34-18.594 18.513-18.594 10.174 0 18.513 8.421 18.513 18.595 0 8.011-5.218 14.843-12.37 17.35z" fill="#fff" fill-rule="nonzero"/></svg>
