<svg viewBox="0 0 1792 1792" xmlns="http://www.w3.org/2000/svg" fill-rule="evenodd" clip-rule="evenodd" stroke-linejoin="round" stroke-miterlimit="2"><path d="M836.106 1211.944l-15 368-2 22-420-29c-24-2-46.333-12.5-67-31.5s-36.333-40.83-47-65.5c-7.333-18-12.167-36.33-14.5-55s-1-40.33 4-65 9-43 12-55 10.167-33.33 21.5-64 17.667-48.33 19-53c52 8 221.667 17.33 509 28zm-387-586l180 379-147-92c-42 48-79.167 96.167-111.5 144.5-32.333 48.33-56.5 90-72.5 125s-29.167 66.5-39.5 94.5c-10.333 28-16.5 49-18.5 63l-4 21-190-357c-11.333-17.333-17.333-36-18-56-.667-20 1.333-35.667 6-47l8-18c23.333-42 61.333-104.667 114-188l-140-86 433 17zm1231 517l-188 359c-8 19.33-20.17 34.83-36.5 46.5-16.33 11.67-30.83 18.5-43.5 20.5l-18 4c-47.33 4.67-120.33 8.67-219 12l8 164-230-367 211-362 7 173c113.33 10.67 207.67 12.33 283 5 75.33-7.33 132-18.33 170-33l56-22zm-785-924c-31.333 42-119.667 187-265 435l-317-187-19-12 225-356c13.333-20.667 33.333-35.667 60-45 26.667-9.333 53.333-12.667 80-10 16 1.333 32.167 5.333 48.5 12s30.333 13.667 42 21c11.667 7.333 25.5 18.333 41.5 33 16 14.667 28 26.167 36 34.5 8 8.333 20 21.5 36 39.5s26.667 29.667 32 35zm655 307l212 363c12 24.667 16.17 50 12.5 76-3.67 26-12.83 50.667-27.5 74-8.67 13.33-19.67 25.67-33 37-13.33 11.33-26 20.67-38 28-12 7.33-28.17 14.67-48.5 22s-36 12.67-47 16-28.17 8-51.5 14-38.67 10-46 12c-22.67-48-111-193.333-265-436l313-195 19-11zm-143-226l142-83-220 373-419-20 151-86c-22.67-59.333-47.67-114.667-75-166-27.333-51.333-52.5-92.5-75.5-123.5s-44.5-57.667-64.5-80-35.667-37.833-47-46.5l-17-13 405 1c20.67-2 40 1.5 58 10.5s31 18.5 39 28.5l11 15c26 40.667 63.33 104 112 190z" fill="#fff" fill-rule="nonzero"/></svg>
