<svg viewBox="0 0 240 240" xmlns="http://www.w3.org/2000/svg" fill-rule="evenodd" clip-rule="evenodd" stroke-linejoin="round" stroke-miterlimit="2"><path d="M181.604 16.013c-3.269-5.501-9.873-7.143-14.621-5.385C156.528 14.48 148 25.38 139.64 43.652l57.581 24.255c-3.255-19.8-7.757-38-15.617-51.894z" fill="#94ade0"/><clipPath id="a"><path d="M181.604 16.013c-3.269-5.501-9.873-7.143-14.621-5.385C156.528 14.48 148 25.38 139.64 43.652l57.581 24.255c-3.255-19.8-7.757-38-15.617-51.894z"/></clipPath><g clip-path="url(#a)"><path d="M198.639 70.426C213.244 53.741 188.504.802 166.466 7.428c-12.989 3.682-21.185 19.164-26.591 35.451l13.16 4.273c.905.366 2.387.588 2.872-.796 3.913-12.572 9.713-21.63 17.622-26.762 3.245-.884 5.659 1.161 7.368 5.691 4.035 12.887 5.212 20.511 5.507 26.514l1.014 14.976 11.221 3.651z" fill="#341e44"/></g><path d="M87.689 45.356C70.202 22.402 54.407 12.065 42.626 18.631 28.491 33.612 28.121 63.094 31.739 94.408l28.479-27.595 21.18-16.815c3.517.593 6.065-1.578 6.291-4.642z" fill="#92a2d5"/><g><clipPath id="b"><path d="M87.689 45.356C70.202 22.402 54.407 12.065 42.626 18.631 28.491 33.612 28.121 63.094 31.739 94.408l28.479-27.595 21.18-16.815c3.517.593 6.065-1.578 6.291-4.642z"/></clipPath><g clip-path="url(#b)"><path d="M83.565 25.15L41.247 12.107C25.504 40.349 17.709 66.781 29.219 98.093l15.845-18.124c.288-17.609 1.062-33.178 2.428-46.262 1.079-6.176 3.597-8.525 7.751-6.52 6.799 5.276 12.897 11.826 21.068 21.029 1.723 1.318 4.538 2.016 6.891 1.802 4.193-.735 4.321-2.841 4.413-4.506l-4.05-20.362z" fill="#311746"/></g></g><g><path d="M180.988 77.621C109.814 32.995 55.113 43.405 15.586 104.514c2.039 59.435 1.542 131.231 13.669 148.968l174.375-2.89c-9.92-19.489-6.137-48.881-22.642-172.971z" fill="url(#_Linear3)" transform="translate(16.166 -10.236)"/></g><g><path d="M239.553 144.76a202.512 202.512 0 00-25.66-7.761c-9.702-2.24-18.922-3.545-28.822-3.897-.473.27-.265.702.733.863 12.777.718 25.605 2.247 53.75 10.796z" fill="#83889e"/><path d="M240.727 123.271a275.008 275.008 0 00-30.982-4.417c-11.542-.971-22.313-1.068-33.623-.118-.47.333-.129.74 1.042.77 14.66-.962 29.574-1.115 63.563 3.765z" fill="#7882a5"/><path d="M241.885 96.368a225.433 225.433 0 00-28.192-2.52c-10.495-.268-20.276.284-30.533 1.91-.422.359-.107.743.957.703 13.298-1.84 26.839-2.891 57.768-.093z" fill="#767e95"/><path d="M241.148 81.377c-9.998-.24-19.467.182-28.284 1.082-10.443 1.067-20.075 2.858-30.042 5.773-.373.41-.012.75 1.038.575 12.957-3.514 26.254-6.277 57.288-7.43z" fill="#6f779b"/><path d="M238.969 63.461c-23.995 2.043-47.93 5.702-59.896 12.33-.31.881.937 1.307 1.636.97 10.877-6.316 27.512-8.943 58.26-13.3z" fill="#555972"/><g><path d="M72.996 140.709c-24.955 6.962-48.725 15.274-71.585 25.308 24.135-8.946 47.923-16.771 71.288-23.227 2.54-1.515 1.162-2.132.297-2.081z" fill="#424d7b"/><path d="M71.158 123.594c-25.405 4.205-49.735 9.739-73.291 16.915 24.742-6.079 49.052-11.168 72.833-15.048 2.648-1.161 1.324-1.84.458-1.867z" fill="#394a7e"/><path d="M60.983 110.806c-24.059 2.507-47.142 6.213-69.543 11.378 23.487-4.16 46.539-7.483 69.058-9.781 2.528-.888 1.3-1.535.485-1.597z" fill="#717da5"/><path d="M55.804 97.42c-20.912.297-40.91 2.277-60.24 5.836 20.268-2.597 40.249-4.336 59.896-4.888 2.166-.496 1.06-.9.344-.949z" fill="#7983a6"/></g></g><g><path d="M153.056 50.498c-29.51-10.12-60.795-5.641-82.625 8.896C51.33 73.552 38.869 92.733 47.81 117.577c13.013 19.108 38.621 30.454 88.699 26.717 25.181-5.174 50.261-22.686 56.823-42.205 3.453-20.267-6.73-39.18-40.276-51.591z" fill="#443061"/><path d="M91.287 66.592c12.452 0 23.076 7.158 23.985 19.111 1.046 13.742-12.21 24.655-25.311 23.598-13.245-1.067-22.786-9.513-21.67-21.55 1.104-11.926 10.544-21.16 22.996-21.16z" fill="#1c092a"/><path d="M158.959 56.512c10.894 0 21.923 7.142 22.712 17.458.855 11.178-8.191 21.158-19.735 20.553-10.887-.57-22.585-10.117-22.585-20.5 0-10.381 8.715-17.511 19.608-17.511z" fill="#260f31"/><path d="M145.483 80.164c-12.814-.059-25.227 1.913-33.606 5.395.332.353.451 1.101.817 1.447 4.796 4.53 10.301 7.098 17.484 10.957 1.545.848 2.184 2.487 2.337 4.547l-.034 41.756c-1.104 5.086-1.051 11.802-.786 14.435 2.847-5.034 4.571-9.982 5.948-14.904l-.145-34.966 11.324 37.758c1.076 4.191 3.019 5.466 5.2 5.938.229-1.498.154-2.972-.012-4.439l-15.253-45.328c-.713-2.025-.656-3.83.649-5.279 4.187-5.52 7.624-10.604 10.076-15.116l-3.999-2.201z" fill="#180620"/><g><clipPath id="c"><path d="M145.483 80.164c-12.814-.059-25.227 1.913-33.606 5.395.332.353.451 1.101.817 1.447 4.796 4.53 10.301 7.098 17.484 10.957 1.545.848 2.184 2.487 2.337 4.547l-.034 41.756c-1.104 5.086-1.051 11.802-.786 14.435 2.847-5.034 4.571-9.982 5.948-14.904l-.145-34.966 11.324 37.758c1.076 4.191 3.019 5.466 5.2 5.938.229-1.498.154-2.972-.012-4.439l-15.253-45.328c-.713-2.025-.656-3.83.649-5.279 4.187-5.52 7.624-10.604 10.076-15.116l-3.999-2.201z"/></clipPath><g clip-path="url(#c)"><path d="M139.744 143.221c-3.324 1.565-6.692 1.483-10.06.757l-.194 14.37 4.787 2.1 5.467-17.227z" fill="#52619a"/><path d="M152.158 140.863c-.423.19 1.147 6.37.226 6.526-1.219.206-4.633-5.408-5.312-6.345l-3.285 15.252h14.191l-5.82-15.433z" fill="#526496"/></g></g><path d="M92.682 62.118c12.796-.345 21.735 8.266 21.85 19.696.108 10.662-9.434 18.846-21.85 19.696-12.385.847-22.616-7.79-21.853-19.696.7-10.942 10.183-19.382 21.853-19.696z" fill="#e2d4c9"/><g transform="matrix(1.31136 0 0 1.56106 -34.984 -61.485)"><clipPath id="d"><path d="M97.354 79.179c9.758-.221 16.575 5.295 16.663 12.617.082 6.83-7.195 12.073-16.663 12.617-9.444.543-17.246-4.99-16.664-12.617.534-7.009 7.765-12.416 16.664-12.617z"/></clipPath><g clip-path="url(#d)"><path d="M100.635 85.899c3.031.684 5.522 2.814 5.522 5.522s-2.269 4.657-5.427 4.657c-3.156 0-6.255-2.474-6.65-5.164-.509-3.46 2.83-5.856 6.555-5.015z" fill="#1b0a2e"/></g></g><g><path d="M158.302 51.026c11.503.66 20.89 9.169 20.427 19.273-.474 10.367-8.335 17.726-19.636 17.116-10.42-.563-19.873-8.85-20.6-18.348-.81-10.576 8.719-18.678 19.81-18.04z" fill="#f1e1d4"/><g transform="matrix(1.40178 0 0 1.36785 -65.936 -40.16)"><clipPath id="e"><path d="M159.967 66.664c8.206.483 14.902 6.703 14.572 14.09-.338 7.579-5.946 12.959-14.008 12.513-7.433-.412-14.177-6.47-14.696-13.414-.578-7.732 6.22-13.655 14.132-13.189z"/></clipPath><g clip-path="url(#e)"><path d="M159.514 73.166c2.421.523 4.53 2.454 4.794 5.262.268 2.893-.8 4.91-3.459 5.19-2.79.295-5.427-1.092-6.473-3.976-1.222-3.37.932-7.383 5.138-6.476z" fill="#1a0d21"/></g></g></g></g><defs><linearGradient id="_Linear3" x1="0" y1="0" x2="1" y2="0" gradientUnits="userSpaceOnUse" gradientTransform="matrix(123.142 -.69589 .69589 123.142 47.7 203.768)"><stop offset="0" stop-color="#93a0d4"/><stop offset="1" stop-color="#94afe1"/></linearGradient></defs></svg>
