<?xml version="1.0" encoding="UTF-8" standalone="no"?>
<!DOCTYPE svg PUBLIC "-//W3C//DTD SVG 1.1//EN" "http://www.w3.org/Graphics/SVG/1.1/DTD/svg11.dtd">
<svg width="100%" height="100%" viewBox="0 0 50 50" version="1.1" xmlns="http://www.w3.org/2000/svg" xmlns:xlink="http://www.w3.org/1999/xlink" xml:space="preserve" xmlns:serif="http://www.serif.com/" style="fill-rule:evenodd;clip-rule:evenodd;stroke-linejoin:round;stroke-miterlimit:2;">
    <g id="画板1" transform="matrix(0.00436298,0,0,0.00514268,-43.3711,17.3714)">
        <rect x="9940.71" y="-3377.9" width="11460.1" height="9722.57" style="fill:none;"/>
        <g id="planet" transform="matrix(19.1713,0,0,16.2646,10762.9,-2680.36)">
            <path d="M91.425,417C65.233,417 43.924,438.309 43.924,464.5C43.924,490.691 65.233,512 91.425,512C117.617,512 138.926,490.691 138.926,464.5C138.926,438.309 117.617,417 91.425,417ZM91.425,497C73.504,497 58.924,482.42 58.924,464.5C58.924,446.58 73.504,432 91.425,432C109.346,432 123.926,446.58 123.926,464.5C123.926,482.42 109.346,497 91.425,497Z" style="fill:white;fill-rule:nonzero;"/>
            <path d="M509.993,161.336C509.965,161.26 509.93,161.189 509.9,161.114C509.897,161.106 509.895,161.097 509.891,161.089C509.882,161.066 509.87,161.045 509.861,161.022C509.79,160.849 509.716,160.678 509.634,160.513C504.12,147.438 491.392,139.179 471.76,135.979C456.785,133.537 437.216,133.993 413.552,137.323C409.202,131.556 404.531,126.017 399.55,120.734C414.373,108.159 423.805,89.415 423.805,68.5C423.805,30.729 393.076,0 355.304,0C319.998,0 290.852,26.849 287.195,61.2C276.934,59.567 266.476,58.73 255.994,58.73C211.127,58.73 167.213,74.197 132.34,102.282C97.987,129.949 73.636,168.72 63.771,211.455C62.839,215.491 65.356,219.518 69.392,220.45C69.959,220.581 70.527,220.644 71.085,220.644C74.499,220.644 77.585,218.298 78.386,214.83C87.498,175.354 110.001,139.534 141.748,113.965C174.431,87.644 213.937,73.731 255.993,73.731C266.519,73.731 277.014,74.64 287.273,76.418C291.214,110.47 320.212,137 355.305,137C366.714,137 377.472,134.181 386.943,129.226C406.998,149.934 421.864,175.071 430.274,202.49C425.164,205.867 419.381,209.506 412.793,213.425C336.25,259.7 197.275,311.713 109.263,327.011C101.935,328.338 95.363,329.362 89.435,330.155C85.774,321.955 82.758,313.56 80.371,305.001C80.314,304.728 80.238,304.457 80.15,304.189C75.887,288.619 73.72,272.507 73.72,256C73.72,252.502 73.82,248.969 74.017,245.5C74.251,241.364 71.089,237.822 66.953,237.587C62.823,237.356 59.274,240.514 59.04,244.65C58.827,248.401 58.72,252.22 58.72,256C58.72,260.861 58.911,265.686 59.255,270.481C36.914,284.998 21.366,297.999 11.819,310.147C0.787,324.187 -2.539,337.739 1.914,350.435C1.938,350.51 1.955,350.586 1.981,350.662C6.308,362.927 19.493,377.421 57.637,377.421C58.209,377.421 58.79,377.418 59.373,377.411C70.969,377.272 83.917,376.215 98.109,374.27C115.664,397.653 138.446,417.109 164.267,430.693C192.343,445.464 224.062,453.271 255.995,453.271C313.916,453.271 368.688,427.955 406.269,383.815C408.954,380.661 408.574,375.928 405.42,373.242C402.266,370.557 397.532,370.938 394.847,374.091C360.122,414.878 309.512,438.271 255.995,438.271C201.383,438.271 149.593,413.559 115.102,371.623C127.569,369.454 140.862,366.682 154.941,363.311C158.969,362.346 161.454,358.299 160.489,354.27C159.524,350.241 155.47,347.757 151.449,348.723C133.038,353.132 116.056,356.487 100.608,358.774C100.565,358.779 100.523,358.786 100.48,358.792C85.176,361.054 71.378,362.267 59.2,362.413C28.588,362.77 18.89,353.5 16.129,345.673C16.129,345.672 16.129,345.672 16.128,345.671C16.124,345.658 16.121,345.645 16.116,345.632C10.688,330.547 25.452,311.384 61.172,287.21C62.037,292.675 63.131,298.088 64.455,303.444C49.956,313.946 39.207,323.829 32.473,332.867C32.445,332.902 32.418,332.939 32.39,332.975C32.36,333.015 32.327,333.055 32.298,333.095C32.266,333.139 32.24,333.185 32.209,333.23C32.113,333.367 32.019,333.505 31.931,333.649C31.876,333.739 31.827,333.83 31.776,333.921C31.71,334.041 31.644,334.161 31.584,334.285C31.525,334.407 31.472,334.531 31.42,334.656C31.39,334.726 31.355,334.792 31.328,334.864C31.315,334.898 31.307,334.932 31.295,334.966C31.246,335.099 31.204,335.234 31.163,335.369C31.13,335.477 31.095,335.586 31.068,335.694C31.038,335.81 31.016,335.927 30.992,336.044C30.965,336.176 30.937,336.308 30.917,336.441C30.904,336.529 30.896,336.617 30.886,336.705C30.868,336.866 30.85,337.026 30.843,337.186C30.84,337.248 30.842,337.309 30.84,337.371C30.836,337.555 30.834,337.738 30.843,337.92C30.845,337.967 30.852,338.013 30.855,338.06C30.868,338.253 30.886,338.446 30.914,338.637C30.921,338.686 30.933,338.735 30.941,338.784C30.972,338.969 31.006,339.154 31.051,339.335C31.067,339.4 31.088,339.464 31.106,339.529C31.151,339.692 31.196,339.854 31.252,340.013C31.281,340.097 31.317,340.179 31.349,340.263C31.402,340.401 31.455,340.539 31.517,340.673C31.56,340.767 31.61,340.857 31.656,340.949C31.718,341.071 31.779,341.193 31.847,341.312C31.899,341.402 31.958,341.489 32.014,341.578C32.089,341.696 32.163,341.814 32.245,341.928C32.299,342.004 32.359,342.076 32.416,342.15C32.511,342.273 32.607,342.395 32.71,342.512C32.761,342.57 32.816,342.624 32.869,342.681C32.989,342.809 33.111,342.935 33.241,343.054C33.288,343.098 33.338,343.139 33.387,343.181C33.529,343.305 33.673,343.426 33.825,343.54C33.843,343.553 33.858,343.569 33.877,343.582C33.897,343.597 33.919,343.606 33.939,343.62C34.246,343.842 34.568,344.049 34.914,344.225C34.917,344.226 34.92,344.228 34.923,344.23C35.155,344.348 35.395,344.456 35.644,344.552C38.76,345.749 45.625,347.506 59.034,347.506C70.893,347.506 87.87,346.131 111.89,341.78C201.355,326.229 342.707,273.327 420.512,226.288C465.591,199.472 477.337,183.585 480.295,178C480.4,177.801 480.491,177.599 480.577,177.395C480.584,177.378 480.593,177.363 480.6,177.346C480.761,176.956 480.88,176.558 480.972,176.158C480.977,176.138 480.986,176.12 480.99,176.1C480.994,176.08 480.996,176.061 481,176.041C481.041,175.85 481.071,175.658 481.096,175.466C481.104,175.408 481.114,175.349 481.12,175.291C481.139,175.11 481.149,174.93 481.155,174.749C481.157,174.677 481.163,174.605 481.163,174.533C481.164,174.373 481.156,174.214 481.146,174.055C481.141,173.965 481.138,173.875 481.13,173.786C481.117,173.644 481.094,173.503 481.073,173.362C481.058,173.261 481.045,173.16 481.026,173.06C481,172.924 480.964,172.791 480.931,172.657C480.906,172.558 480.884,172.457 480.855,172.36C480.813,172.218 480.762,172.079 480.711,171.94C480.68,171.856 480.653,171.77 480.62,171.687C480.557,171.532 480.485,171.38 480.412,171.229C480.382,171.167 480.355,171.103 480.324,171.042C480.239,170.878 480.144,170.719 480.047,170.561C480.019,170.516 479.995,170.47 479.966,170.426C479.864,170.267 479.752,170.114 479.637,169.962C479.606,169.921 479.578,169.879 479.546,169.839C479.436,169.7 479.318,169.568 479.198,169.436C479.152,169.386 479.109,169.334 479.062,169.285C478.956,169.175 478.843,169.071 478.729,168.968C478.657,168.902 478.588,168.835 478.514,168.772C478.419,168.691 478.318,168.616 478.219,168.54C478.117,168.462 478.015,168.383 477.909,168.31C477.824,168.252 477.735,168.198 477.647,168.143C477.519,168.063 477.391,167.984 477.257,167.911C477.229,167.896 477.204,167.877 477.175,167.862C477.112,167.829 477.048,167.804 476.985,167.773C476.855,167.709 476.724,167.645 476.589,167.588C476.472,167.538 476.354,167.495 476.236,167.452C476.127,167.412 476.019,167.372 475.907,167.337C475.757,167.29 475.607,167.251 475.456,167.214C475.394,167.199 475.336,167.178 475.273,167.164C475.219,167.152 475.162,167.142 475.108,167.131C475.076,167.125 475.044,167.117 475.012,167.112C463.958,164.726 449.347,164.334 431.529,165.935C428.944,160.908 426.144,155.995 423.135,151.205C464.726,146.269 489.805,151.522 495.933,166.584C501.843,183.513 482.421,205.594 436.523,234.103C376.482,271.801 272.038,315.608 182.534,340.634C178.545,341.75 176.216,345.887 177.331,349.877C178.257,353.191 181.27,355.359 184.55,355.359C185.218,355.359 185.898,355.269 186.573,355.08C274.276,330.557 376.294,288.141 438.188,250.693C438.238,252.459 438.272,254.228 438.272,255.999C438.272,288.621 429.554,320.625 413.062,348.55C410.956,352.116 412.139,356.716 415.707,358.822C416.904,359.529 418.217,359.865 419.514,359.865C422.079,359.865 424.58,358.547 425.979,356.178C443.831,325.945 453.27,291.304 453.27,256C453.27,251.166 453.094,246.327 452.75,241.559C474.341,227.524 489.594,214.901 499.196,203.122C511.087,188.534 514.72,174.476 509.993,161.336ZM301.803,68.5C301.803,39 325.803,15 355.305,15C384.805,15 408.806,39 408.806,68.5C408.806,98 384.806,122 355.305,122C325.804,122 301.803,98 301.803,68.5ZM52.928,332.359C57.327,328.054 62.663,323.522 68.924,318.785C70.405,323.186 72.033,327.546 73.834,331.856C64.738,332.586 57.922,332.619 52.928,332.359ZM459.24,180.173C455.646,183.65 450.481,188.105 443.139,193.532C441.662,189.107 440.034,184.741 438.249,180.441C446.08,179.902 453.084,179.815 459.24,180.173Z" style="fill:white;fill-rule:nonzero;"/>
        </g>
    </g>
</svg>
