<?xml version="1.0" encoding="UTF-8" standalone="no"?>
<!DOCTYPE svg PUBLIC "-//W3C//DTD SVG 1.1//EN" "http://www.w3.org/Graphics/SVG/1.1/DTD/svg11.dtd">
<svg width="100%" height="100%" viewBox="0 0 50 50" version="1.1" xmlns="http://www.w3.org/2000/svg" xmlns:xlink="http://www.w3.org/1999/xlink" xml:space="preserve" xmlns:serif="http://www.serif.com/" style="fill-rule:evenodd;clip-rule:evenodd;stroke-linejoin:round;stroke-miterlimit:2;">
    <g id="画板1" transform="matrix(0.145893,0,0,0.15347,87.7006,-99.709)">
        <rect x="-601.129" y="649.696" width="342.716" height="325.796" style="fill:none;"/>
        <g transform="matrix(0.563285,0,0,0.535474,-573.972,675.512)">
            <path d="M485.743,85.333L26.257,85.333C11.815,85.333 0,97.148 0,111.589L0,400.41C0,414.85 11.815,426.667 26.257,426.667L485.744,426.667C500.184,426.667 512.001,414.852 512.001,400.41L512.001,111.589C512,97.148 500.185,85.333 485.743,85.333ZM475.89,105.024L271.104,258.626C267.422,261.428 261.77,263.181 255.999,263.155C250.229,263.181 244.578,261.428 240.895,258.626L36.109,105.024L475.89,105.024ZM366.5,268.761L478.09,406.608C478.202,406.746 478.339,406.851 478.458,406.976L33.542,406.976C33.66,406.845 33.798,406.746 33.91,406.608L145.5,268.761C148.919,264.534 148.271,258.337 144.036,254.91C139.809,251.491 133.612,252.139 130.192,256.367L19.692,392.868L19.692,117.332L229.086,274.378C236.957,280.24 246.533,282.82 255.998,282.846C265.45,282.826 275.034,280.246 282.91,274.378L492.304,117.332L492.304,392.866L381.807,256.367C378.387,252.14 372.184,251.49 367.963,254.91C363.729,258.329 363.079,264.534 366.5,268.761Z" style="fill:white;fill-rule:nonzero;"/>
        </g>
    </g>
</svg>
