<?xml version="1.0" encoding="UTF-8" standalone="no"?>
<!DOCTYPE svg PUBLIC "-//W3C//DTD SVG 1.1//EN" "http://www.w3.org/Graphics/SVG/1.1/DTD/svg11.dtd">
<svg width="100%" height="100%" viewBox="0 0 50 50" version="1.1" xmlns="http://www.w3.org/2000/svg" xmlns:xlink="http://www.w3.org/1999/xlink" xml:space="preserve" xmlns:serif="http://www.serif.com/" style="fill-rule:evenodd;clip-rule:evenodd;stroke-linejoin:round;stroke-miterlimit:2;">
    <g transform="matrix(0.0813392,0,0,0.0813393,4.1773,4.17723)">
        <g id="画板1">
            <path id="swords" d="M512,95.328L512,15C512,6.719 505.281,0 497,0L416.672,0C412.691,0 408.871,1.578 406.059,4.391L256,154.449L105.941,4.391C103.129,1.578 99.309,0 95.328,0L15,0C6.719,0 0,6.719 0,15L0,95.328C0,99.309 1.578,103.129 4.391,105.941L154.449,256L127.469,282.977C125.578,281.098 123.75,279.266 122,277.516C102.859,258.418 71.73,258.418 52.602,277.516C33.371,296.719 33.391,327.766 52.602,346.945C58.961,353.297 66.281,360.605 74.121,368.457C74.121,368.457 12.891,429.648 12.922,429.629C12.91,429.637 12.898,429.648 12.891,429.648C4.578,437.988 0,449.086 0,460.898C0,489.219 22.93,511.996 51.07,511.996C62.898,511.996 74,507.398 82.34,499.035L143.531,437.879C151.379,445.738 158.699,453.047 165.07,459.406C184.199,478.516 215.328,478.508 234.461,459.418C253.699,440.207 253.672,409.148 234.461,389.977C232.719,388.238 230.891,386.406 229.012,384.539L256,357.551L282.988,384.539C281.109,386.41 279.281,388.238 277.539,389.98C258.328,409.148 258.301,440.211 277.539,459.422C296.672,478.512 327.801,478.52 346.93,459.41C353.301,453.051 360.621,445.738 368.469,437.879L429.66,499.039C438,507.398 449.102,512 460.93,512C489.07,512 512,489.219 512,460.898C512,449.09 507.422,437.988 499.109,429.648C499.102,429.648 499.09,429.641 499.078,429.629C499.109,429.648 437.879,368.461 437.879,368.461C445.719,360.609 453.039,353.301 459.398,346.949C478.609,327.77 478.629,296.719 459.398,277.52C440.27,258.422 409.141,258.422 390,277.52C388.25,279.27 386.422,281.102 384.531,282.98L357.551,256L507.609,105.941C510.422,103.129 512,99.309 512,95.328ZM30,89.121L30,30L89.121,30L234.789,175.672L175.672,234.789L30,89.121ZM61.121,477.828C54.238,484.719 42.781,482.418 36.23,475.836C29.531,469.207 27.309,457.688 34.129,450.836L95.328,389.676L122.32,416.668L61.121,477.828ZM213.27,438.176C205.82,445.617 193.711,445.617 186.262,438.176L73.801,325.719C66.328,318.258 66.328,306.195 73.801,298.746C81.25,291.309 93.359,291.316 100.801,298.746L213.27,411.207C220.75,418.688 220.73,430.738 213.27,438.176ZM477.871,450.84C484.691,457.691 482.469,469.211 475.77,475.84C469.219,482.422 457.762,484.719 450.879,477.828L389.68,416.672L416.672,389.68L477.871,450.84ZM411.199,298.75C418.641,291.32 430.75,291.309 438.199,298.75C445.672,306.199 445.672,318.262 438.199,325.719L325.738,438.18C318.289,445.621 306.18,445.621 298.73,438.18C291.27,430.738 291.25,418.691 298.73,411.211L411.199,298.75ZM363.32,304.199L304.199,363.32L277.211,336.328L336.328,277.211L363.32,304.199ZM482,89.121L207.801,363.316L148.684,304.199L422.879,30L482,30L482,89.121Z" style="fill:white;fill-rule:nonzero;"/>
        </g>
    </g>
</svg>
