<?xml version="1.0" encoding="UTF-8" standalone="no"?>
<!DOCTYPE svg PUBLIC "-//W3C//DTD SVG 1.1//EN" "http://www.w3.org/Graphics/SVG/1.1/DTD/svg11.dtd">
<svg width="100%" height="100%" viewBox="0 0 50 50" version="1.1" xmlns="http://www.w3.org/2000/svg" xmlns:xlink="http://www.w3.org/1999/xlink" xml:space="preserve" xmlns:serif="http://www.serif.com/" style="fill-rule:evenodd;clip-rule:evenodd;stroke-linejoin:round;stroke-miterlimit:2;">
    <g id="画板1" transform="matrix(0.056583,0,0,0.0641239,97.0173,94.3483)">
        <rect x="-1714.6" y="-1471.34" width="883.657" height="779.741" style="fill:none;"/>
        <g transform="matrix(1.44768,0,0,1.27744,-1643.38,-1408.5)">
            <path d="M256,0C115.301,0 0,116.301 0,257C0,396.883 114.25,512 256,512C397.574,512 512,397.055 512,257C512,116.301 396.699,0 256,0ZM301,477.5C286.602,480.5 271.301,482 256,482C240.699,482 225.398,480.5 211,477.5L211,407.301C211,390.5 215.5,384.5 221.5,376.398C224.555,372.906 226.398,369.773 240.098,349.102L217,345.5C157.598,336.801 134.199,305.898 124.898,281.898C112.898,249.801 119.199,209.598 140.801,184.102C144.102,180.199 146.801,173.598 144.402,166.699C139.898,152.898 140.5,131 143.5,122.598C159.406,124.871 175.762,136.266 189.402,144.5C195.688,148.168 198.984,147.199 202,147.5C212.961,145.219 230.059,139.699 256.301,139.699C272.5,139.699 289.602,142.098 306.402,146.898C309.406,146.828 314.234,149.383 322.602,144.5C336.859,135.813 352.66,124.809 368.5,122.598C371.5,131 372.102,152.898 367.602,166.699C365.199,173.598 367.898,180.199 371.203,184.102C392.801,209.602 399.102,249.801 387.102,281.898C377.801,305.898 354.402,336.801 295,345.5L271.902,349.102C286.063,370.469 287.555,373.031 290.504,376.398C296.5,384.5 301,390.5 301,407.301L301,477.5ZM331,468.801L331,407.301C331,390.199 327.398,378.801 322.598,370.398C368.199,358.102 400.602,331.098 415,292.398C430.301,251.602 423.402,203 397.898,169.398C402.402,149.301 402.402,117.199 391.602,102.199C386.801,95.602 380.199,92 371.801,92L371.5,92C348.238,93.258 329.93,104.973 310.301,116.898C292.301,112.098 274,109.699 255.699,109.699C237.102,109.699 218.5,112.398 202.004,116.898C181.34,104.438 163.207,93.227 139.301,92C131.801,92 125.199,95.602 120.398,102.199C109.602,117.199 109.602,149.301 114.102,169.398C88.598,203 81.699,251.898 97,292.398C111.398,331.098 143.801,358.102 189.402,370.398C185.68,376.91 182.734,385.313 181.574,396.684C172.363,399.859 164.375,400.895 156.945,398.711C149.109,396.395 143.004,391.164 137.699,382.242C125.785,362.227 105.492,345.887 82.387,348.012L85.023,377.895C95.723,376.914 106.371,388.234 111.902,397.566C121.027,412.934 133.32,423.012 148.449,427.48C159.68,430.789 169.945,430.711 181,428.352L181,468.801C93.699,438.199 30,354.801 30,257C30,132.801 131.801,30 256,30C380.199,30 482,132.801 482,257C482,354.801 418.301,438.199 331,468.801Z" style="fill:white;fill-rule:nonzero;"/>
        </g>
    </g>
</svg>
