<?xml version="1.0" encoding="UTF-8" standalone="no"?>
<!DOCTYPE svg PUBLIC "-//W3C//DTD SVG 1.1//EN" "http://www.w3.org/Graphics/SVG/1.1/DTD/svg11.dtd">
<svg width="100%" height="100%" viewBox="0 0 1792 1792" version="1.1" xmlns="http://www.w3.org/2000/svg" xmlns:xlink="http://www.w3.org/1999/xlink" xml:space="preserve" xmlns:serif="http://www.serif.com/" style="fill-rule:evenodd;clip-rule:evenodd;stroke-linejoin:round;stroke-miterlimit:2;">
    <g transform="matrix(1,0,0,1,0.106383,42.9444)">
        <path d="M836,1169L821,1537L819,1559L399,1530C375,1528 352.667,1517.5 332,1498.5C311.333,1479.5 295.667,1457.67 285,1433C277.667,1415 272.833,1396.67 270.5,1378C268.167,1359.33 269.5,1337.67 274.5,1313C279.5,1288.33 283.5,1270 286.5,1258C289.5,1246 296.667,1224.67 308,1194C319.333,1163.33 325.667,1145.67 327,1141C379,1149 548.667,1158.33 836,1169ZM449,583L629,962L482,870C440,918 402.833,966.167 370.5,1014.5C338.167,1062.83 314,1104.5 298,1139.5C282,1174.5 268.833,1206 258.5,1234C248.167,1262 242,1283 240,1297L236,1318L46,961C34.667,943.667 28.667,925 28,905C27.333,885 29.333,869.333 34,858L42,840C65.333,798 103.333,735.333 156,652L16,566L449,583ZM1680,1100L1492,1459C1484,1478.33 1471.83,1493.83 1455.5,1505.5C1439.17,1517.17 1424.67,1524 1412,1526L1394,1530C1346.67,1534.67 1273.67,1538.67 1175,1542L1183,1706L953,1339L1164,977L1171,1150C1284.33,1160.67 1378.67,1162.33 1454,1155C1529.33,1147.67 1586,1136.67 1624,1122L1680,1100ZM895,176C863.667,218 775.333,363 630,611L313,424L294,412L519,56C532.333,35.333 552.333,20.333 579,11C605.667,1.667 632.333,-1.667 659,1C675,2.333 691.167,6.333 707.5,13C723.833,19.667 737.833,26.667 749.5,34C761.167,41.333 775,52.333 791,67C807,81.667 819,93.167 827,101.5C835,109.833 847,123 863,141C879,159 889.667,170.667 895,176ZM1550,483L1762,846C1774,870.667 1778.17,896 1774.5,922C1770.83,948 1761.67,972.667 1747,996C1738.33,1009.33 1727.33,1021.67 1714,1033C1700.67,1044.33 1688,1053.67 1676,1061C1664,1068.33 1647.83,1075.67 1627.5,1083C1607.17,1090.33 1591.5,1095.67 1580.5,1099C1569.5,1102.33 1552.33,1107 1529,1113C1505.67,1119 1490.33,1123 1483,1125C1460.33,1077 1372,931.667 1218,689L1531,494L1550,483ZM1407,257L1549,174L1329,547L910,527L1061,441C1038.33,381.667 1013.33,326.333 986,275C958.667,223.667 933.5,182.5 910.5,151.5C887.5,120.5 866,93.833 846,71.5C826,49.167 810.333,33.667 799,25L782,12L1187,13C1207.67,11 1227,14.5 1245,23.5C1263,32.5 1276,42 1284,52L1295,67C1321,107.667 1358.33,171 1407,257Z" style="fill:white;fill-rule:nonzero;"/>
    </g>
</svg>
