<?xml version="1.0" encoding="UTF-8" standalone="no"?>
<!DOCTYPE svg PUBLIC "-//W3C//DTD SVG 1.1//EN" "http://www.w3.org/Graphics/SVG/1.1/DTD/svg11.dtd">
<svg width="100%" height="100%" viewBox="0 0 50 50" version="1.1" xmlns="http://www.w3.org/2000/svg" xmlns:xlink="http://www.w3.org/1999/xlink" xml:space="preserve" xmlns:serif="http://www.serif.com/" style="fill-rule:evenodd;clip-rule:evenodd;stroke-linejoin:round;stroke-miterlimit:2;">
    <g id="画板1" transform="matrix(0.187413,0,0,0.163321,7.63413,-145.937)">
        <rect x="-40.734" y="893.562" width="266.79" height="306.146" style="fill:none;"/>
        <g transform="matrix(0.412887,0,0,0.473795,-13.0177,925.903)">
            <path d="M239.1,6.3L31.1,84.3C12.4,91.3 0,109.3 0,129.3L0,354.4C0,372.6 10.3,389.2 26.5,397.3L234.5,501.3C248,508.1 263.9,508.1 277.4,501.3L485.4,397.3C501.7,389.2 511.9,372.5 511.9,354.4L511.9,129.3C511.9,109.3 499.5,91.4 480.8,84.4L272.8,6.4C262,2.2 250,2.2 239.1,6.3ZM256,68.4L448,140.4L448,141.5L256,219.5L64,141.5L64,140.4L256,68.4ZM288,424.4L288,275.5L448,210.5L448,344.4L288,424.4Z" style="fill:white;fill-rule:nonzero;"/>
        </g>
    </g>
</svg>
