<?xml version="1.0" encoding="UTF-8" standalone="no"?>
<!DOCTYPE svg PUBLIC "-//W3C//DTD SVG 1.1//EN" "http://www.w3.org/Graphics/SVG/1.1/DTD/svg11.dtd">
<svg width="100%" height="100%" viewBox="0 0 50 50" version="1.1" xmlns="http://www.w3.org/2000/svg" xmlns:xlink="http://www.w3.org/1999/xlink" xml:space="preserve" xmlns:serif="http://www.serif.com/" style="fill-rule:evenodd;clip-rule:evenodd;stroke-linejoin:round;stroke-miterlimit:2;">
    <g id="画板1" transform="matrix(0.279402,0,0,0.137737,-43.8815,-92.1219)">
        <rect x="157.055" y="668.826" width="178.954" height="363.011" style="fill:none;"/>
        <g id="hero" transform="matrix(0.262258,0,0,0.531997,180.731,704.846)">
            <g transform="matrix(1,0,0,1,-7.06994,31.896)">
                <path d="M342.383,271.352C319.344,235.41 280.105,213.949 237.418,213.949C194.734,213.949 155.492,235.41 132.457,271.352L76.941,357.957C67.73,372.328 63.48,388.926 64.648,405.953C65.816,422.984 72.297,438.844 83.387,451.824C94.484,464.801 109.148,473.668 125.793,477.473C142.437,481.273 159.5,479.652 175.133,472.781L176.152,472.328C215.492,455.371 260.457,455.523 299.699,472.781C309.82,477.23 320.543,479.48 331.363,479.48C337.246,479.48 343.164,478.812 349.027,477.477C365.672,473.676 380.336,464.809 391.437,451.832C402.531,438.855 409.016,422.992 410.187,405.961C411.359,388.926 407.109,372.328 397.898,357.953L342.383,271.352Z" style="fill:white;fill-rule:nonzero;"/>
            </g>
            <g transform="matrix(1,0,0,1,-24.1401,16.7813)">
                <path d="M91.895,271.238C108.41,264.895 120.957,251.586 127.227,233.762C133.187,216.801 132.699,197.652 125.844,179.84C118.984,162.039 106.508,147.508 90.715,138.918C74.117,129.898 55.887,128.43 39.398,134.785C6.227,147.539 -8.996,188.531 5.469,226.184C17.023,256.152 43.973,275.07 71.219,275.07C78.176,275.07 85.152,273.836 91.895,271.238Z" style="fill:white;fill-rule:nonzero;"/>
            </g>
            <g transform="matrix(1,0,0,1,-20.4697,3.56205)">
                <path d="M199.613,203.387C241.082,203.387 274.82,164.949 274.82,117.703C274.82,70.445 241.082,32 199.613,32C158.148,32 124.414,70.445 124.414,117.703C124.414,164.949 158.148,203.387 199.613,203.387Z" style="fill:white;fill-rule:nonzero;"/>
            </g>
            <g transform="matrix(1,0,0,1,0.379069,-8.55704)">
                <path d="M329.496,224.438L329.5,224.438C335.879,226.555 342.387,227.566 348.867,227.566C379.109,227.566 408.582,205.555 419.828,171.727C426.305,152.254 425.879,131.664 418.629,113.754C411.043,95.008 396.984,81.398 379.039,75.43C361.094,69.469 341.676,71.953 324.375,82.43C307.848,92.441 295.184,108.676 288.719,128.148C275.066,169.227 293.359,212.422 329.496,224.438Z" style="fill:white;fill-rule:nonzero;"/>
            </g>
            <g transform="matrix(1,0,0,1,13.9413,8.30944)">
                <path d="M487.875,214.438L487.863,214.426C459.266,193.301 416.496,202.457 392.516,234.848C368.559,267.254 372.305,310.82 400.859,331.961C411.273,339.676 423.578,343.363 436.172,343.363C458.121,343.363 480.957,332.16 496.219,311.559C520.176,279.152 516.434,235.586 487.875,214.438Z" style="fill:white;fill-rule:nonzero;"/>
            </g>
        </g>
    </g>
</svg>
