<svg viewBox="0 0 50 50" xmlns="http://www.w3.org/2000/svg" fill-rule="evenodd" clip-rule="evenodd" stroke-linejoin="round" stroke-miterlimit="2"><path fill="none" d="M0 0h50v50H0z"/><path d="M23.696 5.77L7.601 11.806a3.72 3.72 0 00-2.407 3.482v17.418c0 1.408.797 2.693 2.051 3.32l16.095 8.047a3.688 3.688 0 003.32 0l16.095-8.047a3.707 3.707 0 002.05-3.32V15.288a3.71 3.71 0 00-2.406-3.475L26.304 5.778a3.65 3.65 0 00-2.608-.008zm1.308 4.805l14.857 5.572v.085l-14.857 6.035-14.857-6.035v-.085l14.857-5.572zm2.476 27.548V26.6l12.38-5.03v10.361l-12.38 6.19z" fill="#fff" fill-rule="nonzero"/></svg>
