<svg viewBox="0 0 50 50" xmlns="http://www.w3.org/2000/svg" fill-rule="evenodd" clip-rule="evenodd" stroke-linejoin="round" stroke-miterlimit="2"><path fill="none" d="M0 0h50v50H0z"/><path d="M31.185 27.182a9.097 9.097 0 00-7.691-4.206 9.097 9.097 0 00-7.691 4.206l-4.068 6.346a5.744 5.744 0 00-.9 3.517 5.743 5.743 0 001.372 3.361c.813.951 1.888 1.601 3.108 1.88 1.22.278 2.47.16 3.615-.344l.075-.033a11.367 11.367 0 019.053.033 5.75 5.75 0 003.614.344 5.743 5.743 0 003.108-1.879 5.743 5.743 0 001.374-3.361 5.744 5.744 0 00-.9-3.518l-4.069-6.346zM11.58 26.066c1.21-.465 2.13-1.44 2.589-2.746.437-1.243.4-2.646-.102-3.951-.502-1.304-1.416-2.37-2.574-2.999-1.216-.66-2.552-.768-3.76-.302-2.43.934-3.546 3.938-2.486 6.697.847 2.196 2.821 3.582 4.818 3.582a4.2 4.2 0 001.515-.28zM19.742 20.126c3.039 0 5.51-2.817 5.51-6.279 0-3.463-2.471-6.28-5.51-6.28-3.038 0-5.51 2.817-5.51 6.28 0 3.462 2.472 6.279 5.51 6.279zM30.787 20.78c.468.155.944.23 1.42.23 2.215 0 4.375-1.613 5.199-4.092.475-1.427.443-2.936-.088-4.248-.556-1.374-1.586-2.371-2.9-2.808-1.316-.437-2.739-.255-4.006.513-1.211.733-2.14 1.923-2.613 3.35-1 3.01.34 6.175 2.988 7.055zM43.386 21.283h-.001c-2.095-1.548-5.23-.877-6.987 1.496-1.755 2.375-1.48 5.567.612 7.116a4.308 4.308 0 002.587.836c1.609 0 3.282-.821 4.4-2.331 1.756-2.375 1.482-5.567-.611-7.117z" fill="#fff" fill-rule="nonzero"/></svg>
